<?xml version="1.0" encoding="utf-8"?>
<!-- Generator: Adobe Illustrator 21.0.0, SVG Export Plug-In . SVG Version: 6.00 Build 0)  -->
<svg version="1.1" id="Capa_1" xmlns="http://www.w3.org/2000/svg" xmlns:xlink="http://www.w3.org/1999/xlink" x="0px" y="0px"
	 viewBox="0 0 380 380" style="enable-background:new 0 0 380 380;" xml:space="preserve">
<style type="text/css">
	.st0{fill:#FFFFFF;}
</style>
<g>
	<path class="st0" d="M190,20C96.3,20,20,96.3,20,190s76.3,170,170,170s170-76.3,170-170S283.7,20,190,20z M190,324.2
		C116,324.2,55.8,264,55.8,190S116,55.8,190,55.8S324.2,116,324.2,190S264,324.2,190,324.2z"/>
	<path class="st0" d="M281.3,184.7h-66.4c-2.4-3.9-5.7-7.2-9.7-9.7V95.3c0-8.4-6.8-15.2-15.2-15.2s-15.2,6.8-15.2,15.2v79.8
		c-8.4,5.1-14,14.4-14,24.9c0,16.1,13.1,29.2,29.2,29.2c10.5,0,19.7-5.6,24.9-14h66.4c8.4,0,15.2-6.8,15.2-15.2
		C296.5,191.6,289.7,184.7,281.3,184.7z"/>
</g>
</svg>
