<?xml version="1.0" encoding="utf-8"?>
<!-- Generator: Adobe Illustrator 21.0.0, SVG Export Plug-In . SVG Version: 6.00 Build 0)  -->
<svg version="1.1"
	 id="Capa_1" inkscape:version="0.48.4 r9939" sodipodi:docname="dist.svg" xmlns:cc="http://creativecommons.org/ns#" xmlns:dc="http://purl.org/dc/elements/1.1/" xmlns:inkscape="http://www.inkscape.org/namespaces/inkscape" xmlns:rdf="http://www.w3.org/1999/02/22-rdf-syntax-ns#" xmlns:sodipodi="http://sodipodi.sourceforge.net/DTD/sodipodi-0.dtd" xmlns:svg="http://www.w3.org/2000/svg"
	 xmlns="http://www.w3.org/2000/svg" xmlns:xlink="http://www.w3.org/1999/xlink" x="0px" y="0px" viewBox="0 0 455.4 455.4"
	 style="enable-background:new 0 0 455.4 455.4;" xml:space="preserve">
<sodipodi:namedview  bordercolor="#666666" borderopacity="1" gridtolerance="10" guidetolerance="10" id="namedview43" inkscape:current-layer="Capa_1" inkscape:cx="227.70799" inkscape:cy="227.70799" inkscape:pageopacity="0" inkscape:pageshadow="2" inkscape:window-height="480" inkscape:window-maximized="0" inkscape:window-width="640" inkscape:window-x="0" inkscape:window-y="25" inkscape:zoom="0.51820755" objecttolerance="10" pagecolor="#ffffff" showgrid="false">
	</sodipodi:namedview>
<g id="g3">
	<g id="g5">
		<path id="path7" class="st0" d="M235.2,68.1c0.3,9.7,0.8,19.3,1.2,29c-7.5,0-11.3,0-18.8,0c0.3-9.7,0.8-19.3,1.2-29
			c-15.2,0-30.5,0-45.7,0c-30.6,116.4-61.3,232.8-92,349.2c41.2,0,82.5,0,123.7,0c0.3-9.7,0.8-19.3,1.2-29c14.1,0,28.2,0,42.2,0
			c0.3,9.7,0.8,19.3,1.2,29c41.2,0,82.5,0,123.7,0c-30.6-116.4-61.2-232.8-92-349.2C265.7,68.1,250.5,68.1,235.2,68.1z M215.9,140.4
			c7.4,0,14.9,0,22.3,0c1,26.8,2.2,53.7,3.2,80.5c-9.6,0-19.2,0-28.8,0C213.7,194.1,214.8,167.3,215.9,140.4z M207.6,345
			c1-26.8,2.2-53.7,3.2-80.5c10.7,0,21.5,0,32.2,0c1,26.8,2.2,53.7,3.2,80.5C233.5,345,220.5,345,207.6,345z"/>
		<path id="path9" class="st0" d="M311,68.1c-6.2,0-9.4,0-15.6,0C334.2,184.5,373,300.9,412,417.3c14,0,28.1,0,42,0
			C406.3,300.9,358.7,184.5,311,68.1z"/>
		<path id="path11" class="st0" d="M143,68.1C95.3,184.5,47.7,300.9,0,417.3c14,0,28.1,0,42,0c39-116.4,77.8-232.8,116.6-349.2
			C152.4,68.1,149.3,68.1,143,68.1z"/>
	</g>
</g>
<g id="g13">
</g>
<g id="g15">
</g>
<g id="g17">
</g>
<g id="g19">
</g>
<g id="g21">
</g>
<g id="g23">
</g>
<g id="g25">
</g>
<g id="g27">
</g>
<g id="g29">
</g>
<g id="g31">
</g>
<g id="g33">
</g>
<g id="g35">
</g>
<g id="g37">
</g>
<g id="g39">
</g>
<g id="g41">
</g>
</svg>
