<?xml version="1.0" encoding="UTF-8" standalone="no"?>
<!-- Generator: Adobe Illustrator 18.1.1, SVG Export Plug-In . SVG Version: 6.00 Build 0)  -->

<svg
   xmlns:dc="http://purl.org/dc/elements/1.1/"
   xmlns:cc="http://creativecommons.org/ns#"
   xmlns:rdf="http://www.w3.org/1999/02/22-rdf-syntax-ns#"
   xmlns:svg="http://www.w3.org/2000/svg"
   xmlns="http://www.w3.org/2000/svg"
   xmlns:sodipodi="http://sodipodi.sourceforge.net/DTD/sodipodi-0.dtd"
   xmlns:inkscape="http://www.inkscape.org/namespaces/inkscape"
   version="1.1"
   id="Capa_1"
   x="0px"
   y="0px"
   viewBox="0 0 21.407 21.407"
   xml:space="preserve"
   inkscape:version="0.48.4 r9939"
   width="100%"
   height="100%"
   sodipodi:docname="fire.svg"
   style="enable-background:new 0 0 21.407 21.407;"><metadata
     id="metadata53"><rdf:RDF><cc:Work
         rdf:about=""><dc:format>image/svg+xml</dc:format><dc:type
           rdf:resource="http://purl.org/dc/dcmitype/StillImage" /></cc:Work></rdf:RDF></metadata><defs
     id="defs51" /><sodipodi:namedview
     pagecolor="#ffffff"
     bordercolor="#666666"
     borderopacity="1"
     objecttolerance="10"
     gridtolerance="10"
     guidetolerance="10"
     inkscape:pageopacity="0"
     inkscape:pageshadow="2"
     inkscape:window-width="1366"
     inkscape:window-height="719"
     id="namedview49"
     showgrid="false"
     inkscape:zoom="11.024431"
     inkscape:cx="10.884915"
     inkscape:cy="10.7035"
     inkscape:window-x="0"
     inkscape:window-y="25"
     inkscape:window-maximized="1"
     inkscape:current-layer="Capa_1" /><g
     id="g3"
     transform="matrix(0.84084647,0,0,0.84084647,2.1779566,1.5021395)"><g
       id="g5"><path
         d="M 15.649,10.778 C 15.566,9.648 15.106,8.635 14.406,7.849 13.288,6.589 12.827,5.281 12.827,2.904 12.15,3.675 11.889,4.399 11.664,5.133 c 0.031,1.098 0.116,2.197 0.345,3.271 0.149,0.696 0.327,1.386 0.572,2.053 0.247,0.676 0.631,1.347 0.759,2.061 0.24,1.343 -0.36,2.374 -1.091,3.366 0.204,-0.067 0.393,-0.149 0.558,-0.249 1.205,-0.722 3.002,-2.742 2.842,-4.857 z"
         id="path7"
         inkscape:connector-curvature="0" /><path
         d="m 11.694,16.019 c 0.305,-0.392 0.603,-0.788 0.857,-1.213 0.767,-1.288 0.41,-2.332 -0.101,-3.645 C 11.639,9.075 11.349,6.944 11.287,4.74 10.935,3.013 10.261,1.413 9.33,0 9.394,0.331 9.438,1.074 9.466,1.416 9.627,3.588 9.201,5.136 7.803,7.035 c 0.603,1.927 1.624,3.528 2.076,5.519 0.269,1.185 0.327,2.354 0.243,3.519 0.524,0.055 1.072,0.037 1.572,-0.054 z"
         id="path9"
         inkscape:connector-curvature="0" /><path
         d="M 9.368,12.071 C 8.868,10.405 7.13,6.621 6.586,4.988 c 0,1.3 -0.131,2.388 -0.257,2.911 -0.301,1.255 -0.581,2.558 -0.581,3.619 0,1.844 1.74,3.485 2.819,4.104 0.327,0.188 0.745,0.321 1.198,0.4 0.093,-1.318 -0.001,-2.636 -0.397,-3.951 z"
         id="path11"
         inkscape:connector-curvature="0" /><polygon
         points="17.31,21.407 17.129,21.354 3.664,17.5 3.482,17.449 3.534,17.267 4.045,15.483 4.096,15.302 4.277,15.354 17.744,19.207 17.924,19.26 17.872,19.44 17.362,21.226 "
         id="polygon13" /><polygon
         points="17.181,15.534 11.387,17.193 14.761,18.158 17.691,17.318 "
         id="polygon15" /><polygon
         points="3.715,19.389 4.226,21.173 10.021,19.515 6.646,18.55 "
         id="polygon17" /></g></g><g
     id="g19"
     transform="matrix(0.91591537,0,0,0.91591537,1.0184437,1.1650463)" /><g
     id="g21"
     transform="matrix(0.91591537,0,0,0.91591537,1.0184437,1.1650463)" /><g
     id="g23"
     transform="matrix(0.91591537,0,0,0.91591537,1.0184437,1.1650463)" /><g
     id="g25"
     transform="matrix(0.91591537,0,0,0.91591537,1.0184437,1.1650463)" /><g
     id="g27"
     transform="matrix(0.91591537,0,0,0.91591537,1.0184437,1.1650463)" /><g
     id="g29"
     transform="matrix(0.91591537,0,0,0.91591537,1.0184437,1.1650463)" /><g
     id="g31"
     transform="matrix(0.91591537,0,0,0.91591537,1.0184437,1.1650463)" /><g
     id="g33"
     transform="matrix(0.91591537,0,0,0.91591537,1.0184437,1.1650463)" /><g
     id="g35"
     transform="matrix(0.91591537,0,0,0.91591537,1.0184437,1.1650463)" /><g
     id="g37"
     transform="matrix(0.91591537,0,0,0.91591537,1.0184437,1.1650463)" /><g
     id="g39"
     transform="matrix(0.91591537,0,0,0.91591537,1.0184437,1.1650463)" /><g
     id="g41"
     transform="matrix(0.91591537,0,0,0.91591537,1.0184437,1.1650463)" /><g
     id="g43"
     transform="matrix(0.91591537,0,0,0.91591537,1.0184437,1.1650463)" /><g
     id="g45"
     transform="matrix(0.91591537,0,0,0.91591537,1.0184437,1.1650463)" /><g
     id="g47"
     transform="matrix(0.91591537,0,0,0.91591537,1.0184437,1.1650463)" /></svg>