<?xml version="1.0" encoding="utf-8"?>
<!-- Generator: Adobe Illustrator 21.0.0, SVG Export Plug-In . SVG Version: 6.00 Build 0)  -->
<svg version="1.1" id="Layer_1" xmlns="http://www.w3.org/2000/svg" xmlns:xlink="http://www.w3.org/1999/xlink" x="0px" y="0px"
	 viewBox="0 0 377 56.7" style="enable-background:new 0 0 377 56.7;" xml:space="preserve">
<path d="M170.9,29l-16.5-15.8H174l6.3,7.2l6.3-7.2h19.5L189.7,29l18.9,17.2h-20.5l-7.8-8.5l-7.8,8.5H152L170.9,29z"/>
<path d="M210.1,13.2h22.7c8.1,0,12.3,3,12.3,8.1c0,3.2-1.9,6.5-8.3,7.6V29c8.2,0.6,9.7,5.3,9.7,8.1c0,3.6-2.5,9.1-14.1,9.1h-22.3
	V13.2z M212.8,28.2h18.8c2.2,0,10.8,0,10.8-6.7c0-6.4-6.7-6.4-11.2-6.4h-18.4V28.2z M212.8,44.4h19c2.1,0,12,0,12-7.4
	c0-6.9-8-6.9-12.7-6.9h-18.3V44.4z"/>
<path d="M252.7,13.2h2.7v33h-2.7V13.2z"/>
<path d="M262.5,13.2h2.7v18.9l30.3-18.9h4.3L278,26.8l23.4,19.4h-3.8l-21.7-18l-10.7,6.7v11.4h-2.7V13.2z"/>
<path d="M304,13.2h33.3v1.8h-30.6v13.1h29.3V30h-29.3v14.3h30.9v1.8H304V13.2z"/>
<path d="M122.6,24c-4.2,0-7.5,1.9-7.5,5.7s3.3,5.7,7.5,5.7s7.5-1.9,7.5-5.7S126.8,24,122.6,24z"/>
<path d="M142.8,13.9H38.3c-1,0-1.8,0.8-1.8,1.7v28.1c0,0.9,0.8,1.7,1.8,1.7h91.6c0,0,0,0,0,0h11.4L159.7,29L142.8,13.9z M61.3,36.9
	h-9.5V22.5h9.3c5.5,0,8,2.8,8,7C69.2,33.5,67,36.9,61.3,36.9z M99.2,31.4c0,3.8-2.7,5.8-8.3,5.8c-5.6,0-8.3-2-8.3-5.8v-8.9h2.7v9.2
	c0,2.6,2.2,3.7,5.6,3.7s5.6-1.1,5.6-3.7v-9.2h2.7V31.4z M122.6,37.2c-7.4,0-10.2-3.9-10.2-7.6c0-3.7,2.8-7.6,10.2-7.6
	c7.4,0,10.2,3.9,10.2,7.6C132.8,33.3,130,37.2,122.6,37.2z"/>
<path d="M60.7,24.3h-6.1V35h6.6c4.5,0,5.3-2.9,5.3-5.5C66.5,27,65.4,24.3,60.7,24.3z"/>
<path d="M342.1,14.1H340v-0.9h5.4v0.9h-2.1v4.7h-1.2V14.1z"/>
<path d="M345.9,13.2h1.7l2,4.3l1.9-4.3h1.7v5.6H352l0-4.6h0l-2.1,4.6h-1l-2-4.6h0l0,4.6h-1.1V13.2z"/>
</svg>
