<?xml version="1.0" encoding="utf-8"?>
<!-- Generator: Adobe Illustrator 21.0.0, SVG Export Plug-In . SVG Version: 6.00 Build 0)  -->
<svg version="1.1" id="Layer_1" xmlns="http://www.w3.org/2000/svg" xmlns:xlink="http://www.w3.org/1999/xlink" x="0px" y="0px"
	 viewBox="0 0 99.9 99.9" style="enable-background:new 0 0 99.9 99.9;" xml:space="preserve">
<style type="text/css">
	.st0{font-family:'Antonio-Bold';}
	.st1{font-size:26.7217px;}
	.st2{font-family:'MyriadPro-Regular';}
	.st3{font-size:12.0789px;}
</style>
<g>
	<path d="M48.8,5.1c6.4,0,12.7,1.4,18.5,4.2l3,1.4l-8.8,2.9c-0.3,0.1-0.5,0.5-0.4,0.8c0.1,0.3,0.4,0.4,0.6,0.4c0.1,0,0.1,0,0.2,0
		l9.7-3.2l0,0l0.2-0.1l0.1,0c0.1,0,0.1,0,0.2,0c0,0,0.1-0.1,0.1-0.1c0.2-0.2,0.2-0.4,0.1-0.7L68.3,1c-0.1-0.2-0.3-0.4-0.6-0.4
		c-0.1,0-0.2,0-0.2,0c-0.3,0.1-0.5,0.5-0.3,0.8l3.4,8L67.4,8c-5.9-2.8-12.1-4.1-18.6-4.1C45.4,3.8,42,4.2,38.7,5
		c-11.5,2.7-21.2,9.7-27.4,19.7c-8.9,14.4-9.5,32-1.6,45.9C9.8,70.9,10,71,10.2,71c0.1,0,0.2,0,0.3-0.1c0.2-0.1,0.3-0.3,0.3-0.4
		c0-0.1,0.1-0.3-0.1-0.5C3,56.5,3.6,39.5,12.3,25.4c6-9.7,15.5-16.5,26.6-19.2C42.2,5.5,45.5,5.1,48.8,5.1z"/>
	<path d="M90.2,29.2c-0.1-0.2-0.4-0.3-0.5-0.3c-0.1,0-0.2,0-0.3,0.1c-0.3,0.2-0.4,0.6-0.2,0.9c7.7,13.5,7,30.6-1.7,44.6
		c-6,9.7-15.5,16.5-26.7,19.1c-3.2,0.8-6.5,1.1-9.8,1.1c-6.5,0-12.7-1.4-18.6-4.3l-3-1.5l8.8-2.9c0.3-0.1,0.5-0.5,0.4-0.8
		c-0.1-0.3-0.4-0.4-0.6-0.4c-0.1,0-0.1,0-0.2,0L28,88.1c0,0-0.1,0-0.1,0l-0.1,0l-0.1,0c0,0-0.1,0-0.1,0c-0.3,0.2-0.4,0.5-0.2,0.8
		l4.1,9.7c0.1,0.2,0.3,0.4,0.6,0.4c0.1,0,0.2,0,0.2,0c0.1,0,0.1-0.1,0.2-0.1c0.2-0.2,0.2-0.4,0.1-0.7l-3.4-8.1l3.2,1.5
		c5.9,2.8,12.2,4.2,18.6,4.2h0c3.4,0,6.8-0.4,10.1-1.2c8-1.9,15.3-5.9,21.1-11.7c2.4-2.4,4.5-5.1,6.3-8
		C97.5,60.7,98.1,43.1,90.2,29.2z"/>
</g>
<text transform="matrix(1 0 0 1 29.8899 54.543)" class="st0 st1">text</text>
<text transform="matrix(1 0 0 1 31.0327 69.7325)" class="st2 st3">CYCLES</text>
</svg>
