<?xml version="1.0" encoding="utf-8"?>
<!-- Generator: Adobe Illustrator 21.0.0, SVG Export Plug-In . SVG Version: 6.00 Build 0)  -->
<svg version="1.1" id="Capa_1" xmlns="http://www.w3.org/2000/svg" xmlns:xlink="http://www.w3.org/1999/xlink" x="0px" y="0px"
	 viewBox="0 0 44.2 44.2" style="enable-background:new 0 0 44.2 44.2;" xml:space="preserve">
<style type="text/css">
	.st0{fill:none;stroke:#000000;stroke-width:0.25;stroke-miterlimit:10;}
	.st1{font-family:'LeagueGothic-Regular';}
	.st2{font-size:11.3223px;}
</style>
<g>
	<path id="circle" class="st0" d="M22.3,1.4c-11.5,0-20.9,9.4-20.9,20.9s9.4,20.9,20.9,20.9c11.5,0,20.9-9.4,20.9-20.9
		S33.8,1.4,22.3,1.4z"/>
	<g id="icon" transform="matrix(0,1,-1,0,59.999875,-1.25e-4)">
		<path id="path5" inkscape:connector-curvature="0" d="M32.6,34.9h-3.4l1.1-1.1c0.1-0.1,0.1-0.2,0-0.2c-0.1-0.1-0.2-0.1-0.2,0
			l-1.4,1.4c0,0,0,0,0,0.1c0,0,0,0.1,0,0.1c0,0,0,0,0,0.1l1.4,1.4c0,0,0.1,0,0.1,0c0,0,0.1,0,0.1,0c0.1-0.1,0.1-0.2,0-0.2l-1.1-1.1
			h3.4c1.4,0,2.5,1.1,2.5,2.5c0,0.7-0.3,1.3-0.7,1.8c-0.1,0.1-0.1,0.2,0,0.2c0,0,0.1,0,0.1,0s0.1,0,0.1,0c0.5-0.5,0.8-1.2,0.8-2
			C35.4,36.1,34.2,34.9,32.6,34.9z"/>
		<path id="path7" inkscape:connector-curvature="0" d="M31.6,38.8c-0.1-0.1-0.2-0.1-0.2,0c-0.1,0.1-0.1,0.2,0,0.2l1.1,1.1h-3.7
			c-1.4,0-2.5-1.1-2.5-2.5c0-0.6,0.2-1.2,0.6-1.6c0.1-0.1,0-0.2,0-0.2c-0.1-0.1-0.2,0-0.2,0C26.3,36.4,26,37,26,37.7
			c0,1.6,1.3,2.8,2.8,2.8h3.7l-1.1,1.1c-0.1,0.1-0.1,0.2,0,0.2c0,0,0.1,0,0.1,0c0,0,0.1,0,0.1,0l1.4-1.4c0.1-0.1,0.1-0.2,0-0.2
			L31.6,38.8z"/>
	</g>
	<text id="number" transform="matrix(1 0 0 1 12.6753 21.4123)" class="st1 st2">88888</text>
</g>
</svg>
