<?xml version="1.0" encoding="utf-8"?>
<!-- Generator: Adobe Illustrator 21.0.0, SVG Export Plug-In . SVG Version: 6.00 Build 0)  -->
<svg version="1.1" id="Capa_1" xmlns="http://www.w3.org/2000/svg" xmlns:xlink="http://www.w3.org/1999/xlink" x="0px" y="0px"
	 viewBox="0 0 44.2 44.2" style="enable-background:new 0 0 44.2 44.2;" xml:space="preserve">
<style type="text/css">
	.text{font-family:'LeagueGothic-Regular'; fill:#2e8b57;font-size:11.3223px;}
	.outside-circle{fill:none;stroke:#cccccc;stroke-width:0.15;stroke-miterlimit:10;}
	.inner-circle{fill:none;stroke:#00a86b;stroke-width:2;stroke-miterlimit:10;}
	.icon{fill:#888888;stroke:none;}
</style>
<g>
	<path id="outside-circle" class="outside-circle" d="M22.2,1.6C10.7,1.6,1.3,11,1.3,22.5s9.4,20.9,20.9,20.9C33.7,43.3,43,34,43,22.5
		S33.7,1.6,22.2,1.6z"/>
	<g id="icon" transform="matrix(0,1,-1,0,59.999875,-1.25e-4)" class="icon">
		<path id="path5" inkscape:connector-curvature="0" d="M32.8,35h-3.4l1.1-1.1c0.1-0.1,0.1-0.2,0-0.2c-0.1-0.1-0.2-0.1-0.2,0
			l-1.4,1.4c0,0,0,0,0,0.1c0,0,0,0.1,0,0.1c0,0,0,0,0,0.1l1.4,1.4c0,0,0.1,0,0.1,0c0,0,0.1,0,0.1,0c0.1-0.1,0.1-0.2,0-0.2l-1.1-1.1
			h3.4c1.4,0,2.5,1.1,2.5,2.5c0,0.7-0.3,1.3-0.7,1.8c-0.1,0.1-0.1,0.2,0,0.2c0,0,0.1,0,0.1,0s0.1,0,0.1,0c0.5-0.5,0.8-1.2,0.8-2
			C35.6,36.3,34.3,35,32.8,35z"/>
		<path id="path7" inkscape:connector-curvature="0" d="M31.8,39c-0.1-0.1-0.2-0.1-0.2,0c-0.1,0.1-0.1,0.2,0,0.2l1.1,1.1H29
			c-1.4,0-2.5-1.1-2.5-2.5c0-0.6,0.2-1.2,0.6-1.6c0.1-0.1,0-0.2,0-0.2c-0.1-0.1-0.2,0-0.2,0c-0.4,0.5-0.7,1.2-0.7,1.8
			c0,1.6,1.3,2.8,2.8,2.8h3.7l-1.1,1.1c-0.1,0.1-0.1,0.2,0,0.2c0,0,0.1,0,0.1,0c0,0,0.1,0,0.1,0l1.4-1.4c0.1-0.1,0.1-0.2,0-0.2
			L31.8,39z"/>
	</g>
	<text id="number" transform="matrix(1 0 0 1 12.5482 21.5889)" class="text" text-anchor="middle" x="10" y="0">{{ ctl.vNumTodayReps }}</text>
</g>
<circle id="inner-circle" class="inner-circle" cx="22.2" cy="22.5" r="18.4"/>
</svg>
