<?xml version="1.0" encoding="utf-8"?>
<!-- Generator: Adobe Illustrator 21.0.0, SVG Export Plug-In . SVG Version: 6.00 Build 0)  -->
<svg version="1.1"
	 id="Capa_1" inkscape:version="0.91 r13725" sodipodi:docname="speedometer.svg" xmlns:cc="http://creativecommons.org/ns#" xmlns:dc="http://purl.org/dc/elements/1.1/" xmlns:inkscape="http://www.inkscape.org/namespaces/inkscape" xmlns:rdf="http://www.w3.org/1999/02/22-rdf-syntax-ns#" xmlns:sodipodi="http://sodipodi.sourceforge.net/DTD/sodipodi-0.dtd" xmlns:svg="http://www.w3.org/2000/svg"
	 xmlns="http://www.w3.org/2000/svg" xmlns:xlink="http://www.w3.org/1999/xlink" x="0px" y="0px" viewBox="0 0 87.6 87.6"
	 style="enable-background:new 0 0 87.6 87.6;" xml:space="preserve">
<sodipodi:namedview  bordercolor="#666666" borderopacity="1" gridtolerance="10" guidetolerance="10" id="namedview40" inkscape:current-layer="Capa_1" inkscape:cx="43.803501" inkscape:cy="43.803501" inkscape:pageopacity="0" inkscape:pageshadow="2" inkscape:window-height="582" inkscape:window-maximized="0" inkscape:window-width="1129" inkscape:window-x="238" inkscape:window-y="14" inkscape:zoom="2.6938486" objecttolerance="10" pagecolor="#ffffff" showgrid="false">
	</sodipodi:namedview>
<g id="g3">
	<g id="Gauge">
		<g id="g6">
			<path id="path8" d="M52.2,57.9c0-0.3-0.1-0.7-0.3-1L31.3,18c-0.6-1.1-2-1.7-3.2-1.3c-1.2,0.4-2,1.7-1.8,3l8,43.2
				c0.1,0.3,0.2,0.7,0.4,0.9c0.1,0.4,0.2,0.7,0.3,1.1c1.3,3.7,4.8,6.2,8.8,6.2c1,0,2-0.2,3-0.5c2.4-0.8,4.3-2.4,5.3-4.6
				c1.1-2.2,1.3-4.7,0.4-7C52.5,58.6,52.3,58.2,52.2,57.9z M43.8,19.5c-1.5,0-2.7,1.2-2.7,2.6c0,1.4,1.2,2.6,2.7,2.6
				c21.2,0,38.5,17,38.5,37.8c0,1.4,1.2,2.6,2.7,2.6c1.5,0,2.7-1.2,2.7-2.6C87.6,38.8,68,19.5,43.8,19.5z M16.3,29.1
				C5.9,37.3,0,49.5,0,62.6c0,1.4,1.2,2.6,2.7,2.6c1.5,0,2.7-1.2,2.7-2.6c0-11.5,5.2-22.2,14.3-29.4c1.1-0.9,1.3-2.6,0.4-3.7
				C19.1,28.4,17.4,28.2,16.3,29.1z"/>
		</g>
	</g>
</g>
<g id="g10">
</g>
<g id="g12">
</g>
<g id="g14">
</g>
<g id="g16">
</g>
<g id="g18">
</g>
<g id="g20">
</g>
<g id="g22">
</g>
<g id="g24">
</g>
<g id="g26">
</g>
<g id="g28">
</g>
<g id="g30">
</g>
<g id="g32">
</g>
<g id="g34">
</g>
<g id="g36">
</g>
<g id="g38">
</g>
</svg>
