<?xml version="1.0" encoding="UTF-8" standalone="no"?>
<!-- Generator: Adobe Illustrator 19.0.0, SVG Export Plug-In . SVG Version: 6.00 Build 0)  -->

<svg ng-class="{ 'wg-target-inactive' : !ctl.timeGoalEnabled, 'wg-target-active': ctl.timeGoalEnabled }"
   xmlns:dc="http://purl.org/dc/elements/1.1/"
   xmlns:cc="http://creativecommons.org/ns#"
   xmlns:rdf="http://www.w3.org/1999/02/22-rdf-syntax-ns#"
   xmlns:svg="http://www.w3.org/2000/svg"
   xmlns="http://www.w3.org/2000/svg"
   xmlns:sodipodi="http://sodipodi.sourceforge.net/DTD/sodipodi-0.dtd"
   xmlns:inkscape="http://www.inkscape.org/namespaces/inkscape"
   version="1.1"
   x="0px"
   y="0px"
   viewBox="0 0 501 501"
   xml:space="preserve"
   inkscape:version="0.91 r13725"
   sodipodi:docname="circle.svg"
   ><metadata
     id="metadata43"><rdf:RDF><cc:Work
         rdf:about=""><dc:format>image/svg+xml</dc:format><dc:type
           rdf:resource="http://purl.org/dc/dcmitype/StillImage" /><dc:title></dc:title></cc:Work></rdf:RDF></metadata><defs
     id="defs41" /><sodipodi:namedview
     pagecolor="#ffffff"
     bordercolor="#666666"
     borderopacity="1"
     objecttolerance="10"
     gridtolerance="10"
     guidetolerance="10"
     inkscape:pageopacity="0"
     inkscape:pageshadow="2"
     inkscape:window-width="1366"
     inkscape:window-height="719"
     id="namedview39"
     showgrid="false"
     inkscape:zoom="0.48659794"
     inkscape:cx="-14.385593"
     inkscape:cy="242.5"
     inkscape:window-x="0"
     inkscape:window-y="1"
     inkscape:window-maximized="1"
     inkscape:current-layer="Layer_1"
     fit-margin-top="0"
     fit-margin-left="0"
     fit-margin-right="0"
     fit-margin-bottom="0" /><path
     inkscape:connector-curvature="0"
     class="wg-time-circle"
     d="M 421.974,79.026 C 376.171,33.225 315.274,8 250.5,8 185.726,8 124.829,33.225 79.026,79.026 33.225,124.829 8,185.726 8,250.5 8,315.274 33.225,376.171 79.026,421.974 124.829,467.775 185.726,493 250.5,493 315.274,493 376.171,467.775 421.974,421.974 467.775,376.171 493,315.274 493,250.5 493,185.726 467.775,124.829 421.974,79.026 Z M 250.5,463 C 133.327,463 38,367.673 38,250.5 38,133.327 133.327,38 250.5,38 367.673,38 463,133.327 463,250.5 463,367.673 367.673,463 250.5,463 Z" />
     <text class="wg-time-text"
     xml:space="preserve"
     style="font-style:normal;font-weight:normal;font-size:120px;line-height:125%;font-family:Antonio;letter-spacing:0px;word-spacing:0px;fill-opacity:1;stroke:none;stroke-width:1px;stroke-linecap:butt;stroke-linejoin:miter;stroke-opacity:1"
     x="135.05566"
     y="278.66525"
     id="text3373"
     sodipodi:linespacing="125%"><tspan
       sodipodi:role="line"
       id="tspan3375"
       text-anchor="middle"
       x="255"
       y="300.66525">{{ 'Time' | translate }}</tspan></text>
</svg>
